HIERARCHY
ROOT Hips
{
	OFFSET 0.000000 100.481300 0.000000
	CHANNELS 6 Xposition Yposition Zposition Xrotation Yrotation Zrotation
	JOINT Spine
	{
		OFFSET -0.279200 12.230698 -2.892100
		CHANNELS 3 Xrotation Yrotation Zrotation
		JOINT Spine1
		{
			OFFSET -0.325700 14.269203 -3.374200
			CHANNELS 3 Xrotation Yrotation Zrotation
			JOINT Spine2
			{
				OFFSET -0.372300 16.307602 -0.352600
				CHANNELS 3 Xrotation Yrotation Zrotation
				JOINT Neck
				{
					OFFSET -0.418800 17.814194 8.416900
					CHANNELS 3 Xrotation Yrotation Zrotation
					JOINT Head
					{
						OFFSET 0.000000 7.031097 3.806800
						CHANNELS 3 Xrotation Yrotation Zrotation
						JOINT HeadTop_End
						{
							OFFSET 0.000000 24.646606 12.978600
							CHANNELS 3 Xrotation Yrotation Zrotation
							End Site
							{
								OFFSET 0.000000 27.854965 0.000000
							}
						}
					}
				}
				JOINT LeftShoulder
				{
					OFFSET 16.952999 14.495407 -7.737500
					CHANNELS 3 Xrotation Yrotation Zrotation
					JOINT LeftArm
					{
						OFFSET 9.308998 -2.777710 0.208600
						CHANNELS 3 Xrotation Yrotation Zrotation
						JOINT LeftForeArm
						{
							OFFSET 29.972298 0.000000 0.000000
							CHANNELS 3 Xrotation Yrotation Zrotation
							JOINT LeftHand
							{
								OFFSET 26.026505 0.000000 0.000000
								CHANNELS 3 Xrotation Yrotation Zrotation
								JOINT LeftHandThumb1
								{
									OFFSET 12.240501 -7.147949 9.207150
									CHANNELS 3 Xrotation Yrotation Zrotation
									JOINT LeftHandThumb2
									{
										OFFSET 4.138618 -2.389435 2.389433
										CHANNELS 3 Xrotation Yrotation Zrotation
										JOINT LeftHandThumb3
										{
											OFFSET 2.726913 -1.574387 1.574386
											CHANNELS 3 Xrotation Yrotation Zrotation
											JOINT LeftHandThumb4
											{
												OFFSET 3.941010 -2.275345 2.275342
												CHANNELS 3 Xrotation Yrotation Zrotation
												End Site
												{
													OFFSET -0.005798 5.087799 0.009903
												}
											}
										}
									}
								}
								JOINT LeftHandIndex1
								{
									OFFSET 24.424698 -1.985611 5.953459
									CHANNELS 3 Xrotation Yrotation Zrotation
									JOINT LeftHandIndex2
									{
										OFFSET 6.426697 0.000000 0.000000
										CHANNELS 3 Xrotation Yrotation Zrotation
										JOINT LeftHandIndex3
										{
											OFFSET 5.337898 0.000000 0.000000
											CHANNELS 3 Xrotation Yrotation Zrotation
											JOINT LeftHandIndex4
											{
												OFFSET 4.409401 0.000000 0.000000
												CHANNELS 3 Xrotation Yrotation Zrotation
												End Site
												{
													OFFSET 0.000000 4.409363 0.014373
												}
											}
										}
									}
								}
								JOINT LeftHandMiddle1
								{
									OFFSET 23.810104 0.000000 0.000000
									CHANNELS 3 Xrotation Yrotation Zrotation
									JOINT LeftHandMiddle2
									{
										OFFSET 7.176498 0.000000 0.000000
										CHANNELS 3 Xrotation Yrotation Zrotation
										JOINT LeftHandMiddle3
										{
											OFFSET 6.774902 0.000000 0.000000
											CHANNELS 3 Xrotation Yrotation Zrotation
											JOINT LeftHandMiddle4
											{
												OFFSET 5.403328 0.000000 0.000000
												CHANNELS 3 Xrotation Yrotation Zrotation
												End Site
												{
													OFFSET -0.027702 5.403244 0.017414
												}
											}
										}
									}
								}
								JOINT LeftHandRing1
								{
									OFFSET 22.908401 -0.839279 -6.020567
									CHANNELS 3 Xrotation Yrotation Zrotation
									JOINT LeftHandRing2
									{
										OFFSET 6.337502 0.000000 0.000000
										CHANNELS 3 Xrotation Yrotation Zrotation
										JOINT LeftHandRing3
										{
											OFFSET 5.779297 0.000000 0.000000
											CHANNELS 3 Xrotation Yrotation Zrotation
											JOINT LeftHandRing4
											{
												OFFSET 4.965698 0.000000 0.000000
												CHANNELS 3 Xrotation Yrotation Zrotation
												End Site
												{
													OFFSET 0.000000 4.965668 0.016186
												}
											}
										}
									}
								}
								JOINT LeftHandPinky1
								{
									OFFSET 20.037003 -1.530319 -10.950146
									CHANNELS 3 Xrotation Yrotation Zrotation
									JOINT LeftHandPinky2
									{
										OFFSET 5.254700 0.000000 0.000000
										CHANNELS 3 Xrotation Yrotation Zrotation
										JOINT LeftHandPinky3
										{
											OFFSET 4.810204 0.000000 0.000000
											CHANNELS 3 Xrotation Yrotation Zrotation
											JOINT LeftHandPinky4
											{
												OFFSET 3.647202 0.000000 0.000000
												CHANNELS 3 Xrotation Yrotation Zrotation
												End Site
												{
													OFFSET 0.000000 3.647186 0.011889
												}
											}
										}
									}
								}
							}
						}
					}
				}
				JOINT RightShoulder
				{
					OFFSET -15.141001 14.495407 -7.737500
					CHANNELS 3 Xrotation Yrotation Zrotation
					JOINT RightArm
					{
						OFFSET -9.308998 -2.777710 0.208500
						CHANNELS 3 Xrotation Yrotation Zrotation
						JOINT RightForeArm
						{
							OFFSET -29.972300 0.000000 0.000000
							CHANNELS 3 Xrotation Yrotation Zrotation
							JOINT RightHand
							{
								OFFSET -26.026505 0.000000 0.000000
								CHANNELS 3 Xrotation Yrotation Zrotation
								JOINT RightHandThumb1
								{
									OFFSET -12.240601 -7.148026 9.207092
									CHANNELS 3 Xrotation Yrotation Zrotation
									JOINT RightHandThumb2
									{
										OFFSET -4.138618 -2.389435 2.389433
										CHANNELS 3 Xrotation Yrotation Zrotation
										JOINT RightHandThumb3
										{
											OFFSET -2.726974 -1.574417 1.574421
											CHANNELS 3 Xrotation Yrotation Zrotation
											JOINT RightHandThumb4
											{
												OFFSET -3.941010 -2.275345 2.275343
												CHANNELS 3 Xrotation Yrotation Zrotation
												End Site
												{
													OFFSET 0.005814 5.087799 0.009927
												}
											}
										}
									}
								}
								JOINT RightHandIndex1
								{
									OFFSET -24.424698 -1.985657 5.953444
									CHANNELS 3 Xrotation Yrotation Zrotation
									JOINT RightHandIndex2
									{
										OFFSET -6.426697 0.000000 0.000000
										CHANNELS 3 Xrotation Yrotation Zrotation
										JOINT RightHandIndex3
										{
											OFFSET -5.337898 0.000000 0.000000
											CHANNELS 3 Xrotation Yrotation Zrotation
											JOINT RightHandIndex4
											{
												OFFSET -4.409401 0.000000 0.000000
												CHANNELS 3 Xrotation Yrotation Zrotation
												End Site
												{
													OFFSET 0.000000 4.409363 0.014408
												}
											}
										}
									}
								}
								JOINT RightHandMiddle1
								{
									OFFSET -23.810097 0.000000 0.000000
									CHANNELS 3 Xrotation Yrotation Zrotation
									JOINT RightHandMiddle2
									{
										OFFSET -7.176498 0.000000 0.000000
										CHANNELS 3 Xrotation Yrotation Zrotation
										JOINT RightHandMiddle3
										{
											OFFSET -6.774902 0.000000 0.000000
											CHANNELS 3 Xrotation Yrotation Zrotation
											JOINT RightHandMiddle4
											{
												OFFSET -5.403328 0.000000 0.000000
												CHANNELS 3 Xrotation Yrotation Zrotation
												End Site
												{
													OFFSET 0.027702 5.403244 0.017457
												}
											}
										}
									}
								}
								JOINT RightHandRing1
								{
									OFFSET -22.908302 -0.839325 -6.020576
									CHANNELS 3 Xrotation Yrotation Zrotation
									JOINT RightHandRing2
									{
										OFFSET -6.337502 0.000000 0.000000
										CHANNELS 3 Xrotation Yrotation Zrotation
										JOINT RightHandRing3
										{
											OFFSET -5.779297 0.000000 0.000000
											CHANNELS 3 Xrotation Yrotation Zrotation
											JOINT RightHandRing4
											{
												OFFSET -4.965698 0.000000 0.000000
												CHANNELS 3 Xrotation Yrotation Zrotation
												End Site
												{
													OFFSET 0.000000 4.965668 0.016226
												}
											}
										}
									}
								}
								JOINT RightHandPinky1
								{
									OFFSET -20.037003 -1.530334 -10.950259
									CHANNELS 3 Xrotation Yrotation Zrotation
									JOINT RightHandPinky2
									{
										OFFSET -5.254700 0.000000 0.000000
										CHANNELS 3 Xrotation Yrotation Zrotation
										JOINT RightHandPinky3
										{
											OFFSET -4.810204 0.000000 0.000000
											CHANNELS 3 Xrotation Yrotation Zrotation
											JOINT RightHandPinky4
											{
												OFFSET -3.647202 0.000000 0.000000
												CHANNELS 3 Xrotation Yrotation Zrotation
												End Site
												{
													OFFSET 0.000000 3.647186 0.011917
												}
											}
										}
									}
								}
							}
						}
					}
				}
			}
		}
	}
	JOINT LeftUpLeg
	{
		OFFSET 15.427100 -6.655098 0.678600
		CHANNELS 3 Xrotation Yrotation Zrotation
		JOINT LeftLeg
		{
			OFFSET 4.081073 -39.591068 13.024000
			CHANNELS 3 Xrotation Yrotation Zrotation
			JOINT LeftFoot
			{
				OFFSET -4.081074 -37.707932 -15.979700
				CHANNELS 3 Xrotation Yrotation Zrotation
				JOINT LeftToeBase
				{
					OFFSET 5.346399 -15.068900 20.645000
					CHANNELS 3 Xrotation Yrotation Zrotation
					JOINT LeftToe_End
					{
						OFFSET 2.754700 0.931300 11.300900
						CHANNELS 3 Xrotation Yrotation Zrotation
						End Site
						{
							OFFSET 0.000000 11.669021 0.000000
						}
					}
				}
			}
		}
	}
	JOINT RightUpLeg
	{
		OFFSET -15.569500 -6.655098 0.678600
		CHANNELS 3 Xrotation Yrotation Zrotation
		JOINT RightLeg
		{
			OFFSET -4.081825 -39.591045 13.023800
			CHANNELS 3 Xrotation Yrotation Zrotation
			JOINT RightFoot
			{
				OFFSET 4.081824 -37.707954 -15.979600
				CHANNELS 3 Xrotation Yrotation Zrotation
				JOINT RightToeBase
				{
					OFFSET -5.346400 -15.068900 20.645000
					CHANNELS 3 Xrotation Yrotation Zrotation
					JOINT RightToe_End
					{
						OFFSET -2.754700 0.931300 11.300900
						CHANNELS 3 Xrotation Yrotation Zrotation
						End Site
						{
							OFFSET 0.000000 11.669021 0.000000
						}
					}
				}
			}
		}
	}
}
MOTION
Frames: 5
Frame Time: 0.033333
-3.199902 93.072945 -4.366375 21.524289 -0.140340 -2.598481 2.093840 -0.012176 -0.574717 3.067071 0.298349 0.007120 3.066253 0.309287 0.007461 -6.843636 -1.273099 5.899280 -7.311387 4.134074 -4.218871 0.000000 -0.000000 0.000000 -0.230951 11.922249 14.309438 -69.705646 -11.805062 -17.654762 0.000079 -78.185087 0.000060 -6.724518 -12.993952 36.829951 -1.863463 -14.117164 19.359726 14.090723 33.113618 11.446848 1.822636 -2.176053 26.813361 -0.000000 0.000000 0.000001 0.089742 1.841771 2.927153 0.062962 0.857454 -8.397990 0.005623 0.256953 -2.508390 -0.000000 0.000001 -0.000000 0.045181 2.482555 3.565734 0.093152 1.041661 -10.220029 0.030217 0.595017 -5.816587 -0.000000 -0.000001 -0.000000 0.024498 2.910343 3.215130 0.065550 0.874835 -8.569505 0.054455 0.797795 -7.809745 0.000000 0.000002 -0.000002 -0.731354 2.627346 3.307027 0.051091 0.772818 -7.563750 0.005494 0.253942 -2.478947 0.000001 -0.000001 -0.000000 1.127772 -9.875185 -9.521903 -79.489045 20.659401 17.446810 -0.000356 85.078100 0.000387 1.215921 5.578047 -26.448029 -12.478324 1.384535 -18.624579 9.518047 -25.447022 -10.841687 8.526053 -6.405774 3.087838 0.000000 0.000001 0.000000 4.498763 4.448141 -10.304918 0.165092 -1.230271 15.285393 0.431599 -1.959801 24.837626 -0.000002 -0.000002 -0.000004 0.695626 5.460776 -4.617664 0.172974 -1.258673 15.647311 0.259232 -1.533679 19.187897 -0.000001 0.000002 0.000000 -0.455896 3.638302 4.975159 0.050620 -0.685470 8.445702 0.301228 -1.649333 20.699430 -0.000002 -0.000001 0.000000 -1.196407 2.614409 6.655740 0.120304 -1.052818 13.037460 0.202100 -1.358414 16.923581 0.000000 0.000000 -0.000003 -40.275467 5.556218 16.327057 30.346735 3.719161 -0.741796 -1.261277 2.394410 -9.427514 -12.298556 0.000012 -0.000001 0.000000 0.000001 -0.000000 -40.426817 -7.653165 -6.626197 29.751655 1.899702 4.462210 1.925884 -0.356631 1.690083 -17.521090 0.000003 0.000000 0.000000 -0.000000 0.000000 
-3.548045 103.079704 -3.112270 18.998530 0.024037 -2.763565 1.732002 0.142220 -0.447446 2.614166 0.358246 -0.001230 2.612674 0.372407 -0.000859 -5.960221 -1.534233 5.818346 -2.886309 2.994556 -4.453906 0.000000 0.000000 -0.000000 -1.933081 13.224229 17.346126 -73.611134 -21.835087 -15.846119 -0.000008 -69.329050 -0.000001 -9.022771 -11.949077 31.557721 -1.857976 -13.870898 19.345864 14.171330 33.026386 11.141123 1.858038 -1.925994 26.042909 -0.000001 0.000001 -0.000002 0.083920 1.919020 2.143926 0.073846 0.928256 -9.097294 0.007731 0.301029 -2.938963 0.000002 -0.000001 0.000000 0.042075 2.691301 2.710192 0.111101 1.136707 -11.164497 0.035248 0.642311 -6.280549 -0.000001 0.000003 -0.000003 0.033132 3.113571 2.106539 0.078472 0.956627 -9.377854 0.061467 0.847338 -8.298232 -0.000001 0.000001 -0.000002 -0.811737 2.943326 1.865565 0.059311 0.832410 -8.150927 0.006293 0.271852 -2.653663 -0.000001 0.000000 0.000000 -1.802934 -14.254360 -15.478640 -85.788364 27.435101 20.350998 0.000007 73.146094 -0.000004 1.687273 5.834372 -22.630182 -12.521427 1.064660 -18.229768 9.635681 -25.313837 -10.722143 8.357969 -6.388346 2.378393 -0.000000 -0.000000 -0.000000 4.332126 4.297351 -9.601045 0.173572 -1.260887 15.675399 0.421482 -1.937771 24.539924 -0.000000 0.000000 -0.000003 0.597818 5.274003 -3.973376 0.185562 -1.302818 16.211048 0.267052 -1.555910 19.477324 -0.000002 0.000000 -0.000002 -0.521407 3.515731 5.665138 0.054997 -0.714336 8.803905 0.302847 -1.653608 20.755519 0.000001 0.000002 0.000002 -1.276041 2.549172 7.772873 0.128971 -1.089541 13.500922 0.199859 -1.350984 16.828133 0.000001 0.000001 -0.000001 -30.919754 8.149710 16.084798 12.245090 5.583600 -1.010874 22.276725 0.708101 -8.987665 -18.416232 0.317739 -2.419326 0.000000 0.000001 0.000000 -28.572090 -8.164925 -5.496640 9.833274 -2.024960 3.697319 22.811370 2.028437 2.930709 -22.966986 0.066173 -0.435274 -0.000000 0.000001 -0.000000 
-3.609897 109.488548 -2.429926 18.480373 -0.115337 -2.676207 1.290986 0.204685 -0.489713 2.107751 0.401863 -0.087370 2.105207 0.419405 -0.087096 -7.000856 -1.825692 5.784422 1.570778 2.452416 -4.673243 0.000001 -0.000000 0.000000 -3.736473 17.201893 18.495131 -81.971088 -32.515409 -17.479291 0.000003 -58.193574 0.000001 -10.333886 -12.296428 25.590019 -1.839692 -13.613994 19.334782 14.266519 32.925566 10.806748 1.901492 -1.698614 25.252331 0.000000 0.000000 -0.000003 0.078802 1.999872 1.320899 0.086190 1.002257 -9.829594 0.010347 0.348330 -3.401137 0.000001 0.000002 0.000001 0.044171 2.909611 1.810778 0.131553 1.235808 -12.151990 0.041011 0.692623 -6.774810 -0.000000 0.000000 0.000001 0.048347 3.324279 0.941786 0.093206 1.041911 -10.222740 0.069283 0.899298 -8.811128 0.000000 -0.000000 0.000002 -0.882195 3.277483 0.357268 0.068590 0.894784 -8.766468 0.007236 0.291403 -2.844900 0.000001 0.000001 -0.000001 -4.397831 -20.782299 -18.351374 -99.682110 33.249074 29.969190 0.000045 59.052142 -0.000036 -1.695286 8.319526 -20.060143 -12.561566 0.738225 -17.827864 9.749146 -25.170891 -10.609572 8.186923 -6.364355 1.661099 -0.000000 -0.000001 -0.000001 4.157706 4.138873 -8.867036 0.182242 -1.291375 16.064868 0.411008 -1.914740 24.228846 -0.000001 0.000001 -0.000002 0.501179 5.082307 -3.310611 0.198743 -1.347316 16.781112 0.274910 -1.577955 19.764713 0.000003 0.000002 0.000001 -0.587628 3.382880 6.391350 0.059633 -0.743821 9.170391 0.304341 -1.657499 20.806904 -0.000002 0.000000 -0.000000 -1.354758 2.476721 8.898175 0.137976 -1.126415 13.966966 0.197521 -1.343246 16.728940 0.000003 0.000002 -0.000001 -26.595858 9.022170 16.121751 3.232140 7.649552 -0.121063 34.478416 0.457510 -13.880656 -12.959766 -0.053398 0.752152 -0.000000 -0.000000 0.000000 -25.138656 -7.463288 -7.744242 0.883828 -7.640237 1.273903 38.697082 3.420112 15.593665 -22.270822 2.227599 -7.877787 0.000001 0.000001 0.000000 
-3.595649 114.588860 -2.564587 18.406154 -0.847223 -2.554036 0.946485 0.201854 -0.549440 1.861170 0.411460 -0.214163 1.858145 0.429569 -0.213253 -8.880143 -1.825116 5.265018 5.924077 2.840005 -3.966663 -0.000001 -0.000000 0.000000 -5.968892 23.091828 20.829328 -94.599766 -38.845362 -24.418227 0.000001 -48.124434 0.000004 -10.712373 -12.861676 18.994713 -1.809465 -13.347547 19.326147 14.375661 32.811460 10.446067 1.952034 -1.493578 24.443773 0.000000 0.000000 -0.000000 0.074587 2.083996 0.461683 0.100034 1.079104 -10.591744 0.013545 0.398553 -3.892309 -0.000000 0.000000 0.000001 0.052160 3.136511 0.871524 0.154603 1.338370 -13.178427 0.047552 0.745692 -7.296835 -0.000002 0.000001 -0.000003 0.070747 3.541399 -0.274066 0.109834 1.130323 -11.100709 0.077934 0.953430 -9.346145 -0.000000 -0.000000 -0.000002 -0.940584 3.628502 -1.211610 0.078969 0.959673 -9.407751 0.008320 0.312520 -3.051384 -0.000000 0.000000 0.000000 -6.160560 -27.119794 -19.616317 -118.785200 31.724784 43.568609 0.000005 47.098857 -0.000006 -5.593286 10.562329 -16.328508 -12.598940 0.405498 -17.419653 9.858763 -25.019104 -10.503463 8.013435 -6.333883 0.936768 -0.000001 -0.000001 0.000001 3.976742 3.972581 -8.105102 0.191114 -1.321786 16.453798 0.400301 -1.890725 23.905766 -0.000000 -0.000003 -0.000000 0.406152 4.885995 -2.630656 0.212504 -1.392149 17.357059 0.282838 -1.599784 20.050060 0.000001 -0.000000 0.000005 -0.654003 3.240326 7.151788 0.064612 -0.773894 9.544612 0.305697 -1.661077 20.853826 -0.000000 0.000002 -0.000001 -1.432192 2.397441 10.029922 0.147332 -1.163393 14.435350 0.195118 -1.335237 16.626344 0.000001 -0.000003 -0.000001 -25.179038 9.163932 15.963648 3.371669 6.839610 0.229502 28.616300 3.616279 -15.781625 -6.890757 0.000002 0.000003 -0.000000 -0.000001 -0.000000 -25.420981 -7.138579 -7.588999 0.969619 -6.607130 0.364635 36.552345 0.386563 17.242908 -3.218280 -0.000010 0.000008 -0.000000 0.000001 -0.000001 
-3.575158 118.403328 -3.222387 17.659589 -2.237849 -2.615495 0.822329 0.198787 -0.513603 1.901495 0.424651 -0.308318 1.898846 0.441030 -0.306428 -9.788038 -1.525776 4.506022 9.171717 3.966408 -2.850128 0.000001 -0.000000 -0.000000 -9.191154 28.652428 27.199167 -105.838924 -37.539160 -32.505881 -0.000009 -42.299399 0.000001 -9.133993 -10.740006 13.283483 -1.768153 -13.072616 19.319603 14.498048 32.684320 10.061414 2.008638 -1.310323 23.619566 0.000000 -0.000000 0.000002 0.071412 2.171015 -0.430062 0.115444 1.158432 -11.380673 0.017383 0.451481 -4.409920 0.000000 0.000002 0.000000 0.066710 3.370926 -0.103720 0.180354 1.443953 -14.239706 0.054956 0.801290 -7.844050 0.000000 -0.000002 -0.000001 0.100924 3.763964 -1.535931 0.128472 1.221400 -12.008234 0.087443 1.009478 -9.901054 0.000001 0.000000 0.000001 -0.984934 3.994891 -2.834873 0.090482 1.026735 -10.072113 0.009571 0.335100 -3.271841 -0.000000 -0.000001 -0.000002 -7.059879 -29.098293 -22.087771 -129.957791 22.367034 50.821105 0.000023 42.905906 -0.000004 -4.981712 11.366511 -13.010265 -12.633641 0.066777 -17.005940 9.964949 -24.859310 -10.403191 7.837961 -6.297139 0.206078 -0.000001 -0.000001 -0.000001 3.790466 3.798447 -7.317448 0.200183 -1.352085 16.842212 0.389356 -1.865854 23.572071 0.000002 -0.000001 -0.000000 0.313169 4.685500 -1.934801 0.226870 -1.437242 17.938443 0.290789 -1.621424 20.333388 -0.000001 -0.000001 0.000000 -0.719863 3.088640 7.944430 0.069858 -0.804530 9.925981 0.306939 -1.664316 20.896422 0.000000 0.000001 0.000001 -1.508036 2.311767 11.166377 0.157051 -1.200441 14.905827 0.192675 -1.327007 16.520682 -0.000001 0.000002 -0.000004 -23.246025 10.022238 16.691080 3.532619 5.757447 -0.164577 26.374542 2.466112 -16.159307 -5.034225 0.000001 -0.000002 -0.000000 -0.000002 0.000001 -25.630396 -7.071423 -7.008825 0.923751 -4.423408 0.454160 36.499325 2.877189 16.111506 -2.288448 0.000004 -0.000004 0.000001 0.000000 -0.000001 
